<?xml version="1.0" standalone="no"?>
<!DOCTYPE svg PUBLIC "-//W3C//DTD SVG 20010904//EN"
 "http://www.w3.org/TR/2001/REC-SVG-20010904/DTD/svg10.dtd">
<svg version="1.0" xmlns="http://www.w3.org/2000/svg"
 width="724.000000pt" height="503.000000pt" viewBox="0 0 724.000000 503.000000"
 preserveAspectRatio="xMidYMid meet">

<g transform="translate(0.000000,503.000000) scale(0.100000,-0.100000)"
fill="#000000" stroke="none">
<path d="M0 2515 l0 -2515 3620 0 3620 0 0 2515 0 2515 -3620 0 -3620 0 0
-2515z m2832 851 c32 -9 77 -25 102 -35 42 -18 44 -22 50 -68 12 -98 11 -166
-1 -170 -7 -3 -24 19 -38 48 -37 72 -107 144 -173 176 -110 54 -325 39 -440
-29 -104 -63 -194 -187 -227 -313 -23 -91 -20 -245 8 -326 48 -141 161 -274
281 -330 145 -68 380 -39 436 54 17 27 20 50 20 149 0 64 -4 128 -10 143 -12
32 -42 43 -133 52 -68 6 -92 16 -81 35 3 4 124 8 270 8 229 0 265 -2 271 -15
9 -24 -3 -29 -77 -33 -38 -2 -74 -9 -79 -16 -5 -6 -11 -84 -12 -172 -5 -189
-4 -188 -105 -228 -133 -54 -388 -73 -539 -41 -217 46 -385 211 -430 423 -50
236 55 482 262 612 126 80 220 101 433 95 100 -2 175 -9 212 -19z m693 -31 c0
-16 -8 -21 -40 -23 -22 -1 -45 -5 -52 -7 -15 -5 8 -70 199 -549 138 -345 153
-377 166 -360 21 28 151 293 163 335 11 35 6 48 -100 290 -62 140 -120 262
-130 272 -10 10 -39 20 -69 24 -34 4 -52 10 -52 19 0 8 6 14 13 14 6 0 96 3
200 6 180 5 187 4 187 -14 0 -16 -9 -20 -50 -25 -28 -3 -55 -9 -60 -12 -11 -7
15 -80 91 -253 29 -67 57 -118 61 -114 14 14 108 232 124 289 15 50 15 56 -1
73 -9 10 -31 20 -49 22 -19 2 -31 8 -31 18 0 12 23 15 135 18 74 1 145 0 158
-3 41 -10 25 -33 -34 -46 -97 -22 -112 -43 -219 -307 l-58 -144 74 -166 c118
-271 132 -298 137 -282 2 8 42 112 89 230 100 253 186 491 209 579 19 74 12
86 -52 102 -26 7 -44 17 -44 25 0 11 28 14 141 14 157 0 168 -6 84 -50 -42
-21 -53 -33 -72 -80 -27 -67 -222 -587 -312 -835 -81 -220 -86 -224 -143 -90
-60 141 -180 395 -187 395 -4 0 -60 -109 -126 -242 -148 -300 -145 -298 -212
-133 -25 61 -91 221 -148 356 -57 135 -127 309 -155 385 -85 229 -87 232 -129
244 -71 22 -68 20 -46 36 15 12 52 14 180 12 152 -3 160 -4 160 -23z m1803 13
c-3 -7 -40 -18 -82 -24 -43 -7 -84 -18 -90 -24 -8 -8 -11 -146 -11 -480 0
-540 -9 -497 102 -515 50 -8 69 -16 71 -28 3 -16 -18 -17 -262 -17 -223 0
-266 2 -266 14 0 15 21 21 110 31 72 8 81 14 91 66 9 49 11 794 2 876 -7 60
-7 61 -122 77 -42 6 -76 16 -79 24 -3 9 55 12 268 12 209 0 271 -3 268 -12z
m-4207 -1349 c42 -14 89 -57 89 -81 0 -26 -19 -22 -32 7 -23 51 -113 70 -178
37 -45 -22 -70 -72 -70 -140 0 -100 48 -152 139 -152 78 0 131 35 131 85 l0
35 -50 0 c-38 0 -50 4 -50 15 0 13 11 15 63 13 l62 -3 3 -82 c2 -57 -1 -83 -9
-83 -6 0 -13 9 -16 20 -5 19 -6 18 -35 -3 -42 -31 -153 -32 -195 -1 -41 30
-73 99 -73 158 0 129 106 213 221 175z m919 -174 c0 -99 -4 -175 -9 -175 -5 0
-11 5 -13 12 -3 8 -11 7 -28 -5 -35 -24 -84 -21 -116 7 -24 20 -28 33 -32 88
-5 72 12 119 49 139 22 11 80 8 112 -5 15 -7 17 -1 17 53 0 34 4 61 10 61 6 0
10 -65 10 -175z m263 103 c10 -40 28 -111 41 -158 l23 -85 22 75 c70 235 72
240 91 240 18 0 38 -53 101 -268 7 -23 14 -41 15 -39 2 2 19 64 39 137 47 177
44 170 60 170 10 0 3 -42 -31 -170 -24 -93 -44 -172 -44 -175 0 -3 -10 -5 -23
-5 -21 0 -27 14 -67 150 -25 82 -47 150 -50 150 -3 0 -18 -46 -34 -103 -60
-207 -56 -197 -79 -197 -20 0 -26 15 -65 168 -23 92 -42 170 -42 175 0 4 6 7
13 7 8 0 20 -28 30 -72z m927 -103 c0 -149 -2 -175 -15 -175 -13 0 -15 26 -15
175 0 149 2 175 15 175 13 0 15 -26 15 -175z m270 0 c0 -99 -4 -175 -9 -175
-5 0 -11 5 -13 12 -3 8 -11 7 -28 -5 -38 -27 -87 -22 -121 12 -26 26 -29 36
-29 93 0 118 63 166 163 123 15 -6 17 0 17 54 0 34 4 61 10 61 6 0 10 -65 10
-175z m290 0 c0 -149 -2 -175 -15 -175 -13 0 -15 26 -15 175 0 149 2 175 15
175 13 0 15 -26 15 -175z m1170 105 c0 -23 4 -30 20 -30 11 0 20 -7 20 -15 0
-8 -9 -15 -20 -15 -18 0 -20 -7 -20 -84 0 -97 5 -116 31 -116 10 0 19 -7 19
-15 0 -18 -41 -20 -58 -3 -8 8 -12 48 -12 115 0 96 -1 103 -20 103 -11 0 -20
5 -20 11 0 6 9 13 20 16 14 4 20 14 20 34 0 16 5 29 10 29 6 0 10 -13 10 -30z
m1100 0 c0 -23 4 -30 20 -30 11 0 20 -7 20 -15 0 -8 -9 -15 -20 -15 -18 0 -20
-7 -20 -84 0 -97 5 -116 31 -116 11 0 19 -7 19 -16 0 -11 -8 -14 -27 -12 -40
4 -53 39 -53 141 0 71 -3 87 -15 87 -8 0 -15 7 -15 15 0 8 7 15 15 15 10 0 15
10 15 30 0 20 5 30 15 30 10 0 15 -10 15 -30z m-4589 -58 c26 -23 33 -38 37
-80 8 -92 -35 -152 -110 -152 -32 0 -47 7 -74 34 -31 31 -34 40 -34 91 0 91
34 134 107 135 33 0 50 -7 74 -28z m274 6 c28 -25 50 -96 40 -132 -23 -79 -53
-106 -120 -106 -70 0 -117 79 -100 167 3 20 19 49 35 65 37 37 105 40 145 6z
m1178 2 c52 -41 60 -153 14 -206 -27 -30 -85 -41 -127 -24 -75 31 -90 177 -23
229 34 28 101 28 136 1z m137 4 c0 -14 2 -14 22 0 25 18 68 21 68 6 0 -5 -6
-10 -14 -10 -8 0 -28 -12 -45 -26 -30 -25 -31 -28 -31 -115 0 -72 -3 -89 -15
-89 -12 0 -15 20 -15 118 0 65 3 122 7 125 11 12 23 8 23 -9z m850 0 c0 -15 2
-15 25 0 35 23 98 21 121 -5 26 -29 35 -229 10 -229 -14 0 -16 14 -16 95 0 83
-3 98 -21 116 -25 25 -61 19 -96 -13 -21 -19 -23 -31 -23 -110 0 -72 -3 -88
-15 -88 -13 0 -15 21 -15 125 0 104 2 125 15 125 8 0 15 -7 15 -16z m284 -74
c18 -47 35 -94 40 -105 6 -16 16 3 48 88 22 59 44 107 49 107 16 0 10 -23 -33
-138 -31 -80 -47 -112 -58 -110 -14 3 -99 204 -100 236 -1 36 26 -2 54 -78z
m372 72 c29 -23 44 -54 44 -91 l0 -31 -95 0 c-89 0 -95 -1 -95 -20 0 -12 11
-32 25 -45 32 -33 95 -35 124 -4 11 12 25 19 33 17 9 -3 3 -15 -19 -36 -54
-54 -141 -40 -175 28 -33 65 -17 148 34 184 30 21 98 20 124 -2z m264 -2 c11
-11 20 -24 20 -30 0 -15 -27 -12 -33 4 -14 36 -117 25 -117 -13 0 -25 17 -37
72 -51 95 -24 121 -97 47 -135 -55 -29 -127 -13 -148 31 -14 31 7 33 32 3 23
-26 104 -24 121 4 18 28 -4 50 -74 73 -34 12 -66 28 -71 36 -16 25 -10 66 13
82 33 23 113 21 138 -4z m260 4 c0 -15 2 -15 25 0 34 22 88 21 109 -3 18 -20
18 -20 39 0 28 26 88 25 113 -2 26 -29 35 -229 10 -229 -14 0 -16 15 -16 100
0 94 -1 100 -24 115 -26 17 -50 12 -83 -18 -21 -18 -23 -30 -23 -109 0 -72 -3
-88 -15 -88 -12 0 -15 18 -15 105 0 93 -2 105 -19 115 -28 15 -36 13 -70 -16
-30 -25 -31 -28 -31 -115 0 -72 -3 -89 -15 -89 -12 0 -15 20 -15 118 0 65 3
122 7 125 11 12 23 7 23 -9z m541 6 c25 -14 49 -62 49 -100 l0 -30 -96 0 -96
0 6 -27 c4 -16 16 -36 28 -45 29 -25 93 -23 119 3 11 11 26 18 32 16 7 -2 -1
-17 -20 -35 -74 -75 -193 -14 -193 98 0 42 23 94 51 114 26 18 90 21 120 6z
m145 -5 c5 -13 8 -13 27 0 12 8 40 15 64 15 63 0 73 -21 73 -147 0 -57 -4
-103 -9 -103 -5 0 -11 45 -13 100 -2 60 -8 104 -15 111 -18 18 -67 15 -97 -5
-25 -16 -26 -20 -26 -111 0 -78 -3 -95 -15 -95 -13 0 -15 21 -15 125 0 79 4
125 10 125 6 0 13 -7 16 -15z m532 -1 c12 -8 22 -22 22 -30 0 -18 -26 -18 -33
0 -8 20 -58 29 -90 17 -55 -21 -24 -66 58 -85 51 -12 75 -33 75 -67 0 -46 -39
-79 -93 -79 -47 0 -97 29 -97 56 0 20 14 17 35 -6 13 -14 31 -20 60 -20 46 0
65 13 65 46 0 22 -11 28 -89 53 -69 22 -91 71 -51 111 25 25 105 27 138 4z"/>
<path d="M1903 1865 c-44 -31 -53 -121 -17 -173 20 -29 72 -29 108 -1 23 18
26 27 26 83 0 48 -4 67 -18 79 -27 25 -73 31 -99 12z"/>
<path d="M3354 1857 c-26 -22 -29 -31 -29 -85 0 -45 5 -66 19 -81 27 -30 80
-28 111 4 21 20 25 34 25 84 0 52 -3 63 -22 75 -44 29 -73 29 -104 3z"/>
<path d="M1360 1867 c-31 -15 -53 -77 -44 -123 9 -48 38 -74 84 -74 51 0 80
35 80 96 0 58 -17 91 -53 104 -37 12 -36 12 -67 -3z"/>
<path d="M1644 1870 c-55 -22 -74 -122 -33 -174 22 -28 73 -35 109 -16 42 23
51 138 12 173 -23 21 -62 28 -88 17z"/>
<path d="M2820 1867 c-48 -24 -65 -100 -35 -156 16 -33 33 -41 79 -41 46 0 68
29 74 93 4 46 1 57 -19 80 -29 32 -66 41 -99 24z"/>
<path d="M4474 1870 c-24 -9 -54 -47 -54 -67 0 -10 22 -13 80 -13 62 0 80 3
80 14 0 28 -13 47 -41 61 -32 17 -36 17 -65 5z"/>
<path d="M5544 1870 c-24 -9 -54 -47 -54 -67 0 -10 23 -13 84 -13 l85 0 -11
30 c-5 17 -23 37 -39 45 -32 17 -36 17 -65 5z"/>
</g>
</svg>
